<?xml version="1.0" encoding="iso-8859-1"?>
<!-- Generator: Adobe Illustrator 19.0.0, SVG Export Plug-In . SVG Version: 6.00 Build 0)  -->
<svg version="1.1" id="Layer_1" xmlns="http://www.w3.org/2000/svg" xmlns:xlink="http://www.w3.org/1999/xlink" x="0px" y="0px"
	 viewBox="0 0 512 512" style="enable-background:new 0 0 512 512;" xml:space="preserve">
<path style="fill:#FFBAA8;" d="M67.155,244.034H55.649c-14.112,0-25.554-11.44-25.554-25.554v-24.344
	c0-14.112,11.44-25.554,25.554-25.554h11.506c12.598,0,22.809,10.213,22.809,22.809v29.832
	C89.965,233.821,79.753,244.034,67.155,244.034z"/>
<path style="fill:#0BBBDA;" d="M109.541,330.996H10.52V283.9c0-22.017,17.849-39.866,39.866-39.866h19.288
	c22.017,0,39.866,17.849,39.866,39.866V330.996z"/>
<path style="fill:#FFBAA8;" d="M431.278,244.034h-11.506c-14.113,0-25.554-11.44-25.554-25.554v-24.344
	c0-14.112,11.44-25.554,25.554-25.554h11.506c12.598,0,22.809,10.213,22.809,22.809v29.832
	C454.089,233.821,443.876,244.034,431.278,244.034z"/>
<g>
	<path style="fill:#0BBBDA;" d="M473.664,330.996h-99.021V283.9c0-22.017,17.849-39.866,39.866-39.866h19.288
		c22.017,0,39.866,17.849,39.866,39.866V330.996z"/>
	<path style="fill:#0BBBDA;" d="M151.621,369.054v-56.282c0-32.391,29.553-49.181,62.115-49.181h56.713
		c32.562,0,62.115,16.79,62.115,49.181v56.282H151.621z"/>
</g>
<path style="fill:#FFBAA8;" d="M245.511,263.591h-6.838c-21.643,0-34.979-17.544-34.979-39.187v-18.41
	c0-21.643,13.336-39.187,34.979-39.187h6.838c21.643,0,34.979,17.544,34.979,39.187v18.41
	C280.49,246.046,267.154,263.591,245.511,263.591z"/>
<g>
	<polygon style="fill:#ECF0F1;" points="275.685,263.591 242.092,316.366 208.499,263.591 	"/>
	<path style="fill:#ECF0F1;" d="M378.611,328.575c16.776-25.629,26.54-56.262,26.54-89.18c0-90.055-73.004-163.059-163.059-163.059
		S79.033,149.341,79.033,239.396s73.004,163.059,163.059,163.059c31.919,0,61.689-9.18,86.833-25.03l123.286,123.286l49.268-49.268
		L378.611,328.575z M242.092,355.115c-63.808,0-115.719-51.912-115.719-115.719s51.912-115.719,115.719-115.719
		s115.719,51.912,115.719,115.719S305.9,355.115,242.092,355.115z"/>
</g>
<g>
	<path style="fill:#231F20;" d="M508.919,444.004L406.43,341.516h67.234c5.809,0,10.52-4.711,10.52-10.52v-47.097
		c0-18.725-10.276-35.086-25.477-43.771c3.717-5.376,5.902-11.889,5.902-18.905v-29.831c0-18.378-14.952-33.329-33.33-33.329
		h-11.506c-7.815,0-15.049,2.509-20.963,6.749c-27.947-58.489-87.689-98.996-156.719-98.996
		c-68.639,0-128.097,40.049-156.243,98.005c-5.336-3.629-11.769-5.758-18.694-5.758H55.649c-19.891,0-36.074,16.183-36.074,36.073
		v24.344c0,7.877,2.545,15.168,6.846,21.107C10.699,248.124,0,264.786,0,283.899v47.097c0,5.809,4.71,10.52,10.52,10.52h91.305
		c31.596,43.28,82.699,71.459,140.268,71.459c29.986,0,59.261-7.693,85.186-22.32l117.494,117.495
		c2.055,2.053,4.747,3.081,7.439,3.081s5.384-1.028,7.439-3.081l49.268-49.268C513.027,454.773,513.027,448.112,508.919,444.004z
		 M463.144,320.476h-67.571c10.825-20.448,17.412-42.808,19.419-65.922h18.805c16.182,0,29.346,13.165,29.346,29.346V320.476z
		 M419.773,179.103h11.506c6.776,0,12.29,5.512,12.29,12.289v29.831c0,6.776-5.513,12.29-12.29,12.29h-11.506
		c-1.472,0-2.891-0.222-4.236-0.618c-0.605-16.344-3.478-32.114-8.317-47.01C409.911,181.804,414.53,179.103,419.773,179.103z
		 M40.615,194.136c0-8.29,6.744-15.033,15.034-15.033h11.506c4.264,0,8.025,2.184,10.23,5.49
		c-5.147,15.432-8.178,31.821-8.757,48.823c-0.484,0.058-0.973,0.097-1.473,0.097H55.649c-8.29,0-15.034-6.744-15.034-15.034
		C40.615,218.479,40.615,194.136,40.615,194.136z M21.04,320.476v-36.577c0-16.182,13.165-29.346,29.346-29.346h18.796
		c2.055,23.638,8.865,45.932,19.471,65.922H21.04V320.476z M452.211,485.833L336.363,369.985c-2.031-2.03-4.725-3.081-7.442-3.081
		c-1.934,0-3.88,0.531-5.607,1.621c-24.293,15.315-52.379,23.409-81.222,23.409c-84.11,0-152.539-68.429-152.539-152.539
		S157.982,86.856,242.092,86.856s152.539,68.429,152.539,152.539c0,29.765-8.583,58.611-24.822,83.419
		c-2.728,4.168-2.159,9.677,1.363,13.2l115.429,115.429L452.211,485.833z"/>
	<path style="fill:#231F20;" d="M242.092,113.156c-69.608,0-126.239,56.631-126.239,126.239s56.631,126.239,126.239,126.239
		s126.239-56.631,126.239-126.239S311.7,113.156,242.092,113.156z M242.092,134.196c58.008,0,105.199,47.191,105.199,105.199
		c0,16.732-3.933,32.561-10.913,46.62c-9.544-17.402-28.698-29.24-53.462-32.206c5.151-8.074,8.094-18.13,8.094-29.405v-18.41
		c0-28.803-19.135-49.707-45.499-49.707h-6.838c-26.364,0-45.499,20.904-45.499,49.707v18.41c0,11.275,2.943,21.331,8.094,29.405
		c-24.764,2.967-43.919,14.805-53.462,32.206c-6.98-14.06-10.913-29.888-10.913-46.62
		C136.893,181.388,184.085,134.196,242.092,134.196z M214.214,224.405v-18.41c0-14.268,7.563-28.667,24.459-28.667h6.838
		c16.896,0,24.459,14.399,24.459,28.667v18.41c0,14.268-7.563,28.667-24.459,28.667h-6.838
		C221.777,253.072,214.214,238.673,214.214,224.405z M256.519,274.111l-14.427,22.664l-14.426-22.664H256.519z M242.092,344.595
		c-31.805,0-60.356-14.188-79.663-36.566c2.466-19.947,20.521-30.536,40.74-33.219l30.048,47.207
		c1.931,3.034,5.279,4.871,8.875,4.871c3.597,0,6.944-1.837,8.875-4.871l30.048-47.207c20.219,2.683,38.275,13.272,40.741,33.219
		C302.448,330.406,273.897,344.595,242.092,344.595z"/>
	<path style="fill:#231F20;" d="M242.092,41.797c5.809,0,10.52-4.711,10.52-10.52V11.289c0-5.809-4.711-10.52-10.52-10.52
		c-5.81,0-10.52,4.711-10.52,10.52v19.988C231.572,37.086,236.282,41.797,242.092,41.797z"/>
	<path style="fill:#231F20;" d="M336.158,67.001c1.657,0.956,3.465,1.412,5.249,1.412c3.636,0,7.172-1.887,9.121-5.262l9.994-17.311
		c2.906-5.032,1.181-11.466-3.85-14.37c-5.034-2.906-11.467-1.18-14.37,3.85l-9.994,17.311
		C329.402,57.663,331.126,64.097,336.158,67.001z"/>
	<path style="fill:#231F20;" d="M133.656,63.15c1.948,3.375,5.484,5.262,9.12,5.262c1.784,0,3.594-0.456,5.251-1.412
		c5.032-2.905,6.756-9.339,3.85-14.37l-9.994-17.311c-2.906-5.032-9.339-6.757-14.37-3.85c-5.032,2.905-6.756,9.339-3.85,14.37
		L133.656,63.15z"/>
</g>
<g>
</g>
<g>
</g>
<g>
</g>
<g>
</g>
<g>
</g>
<g>
</g>
<g>
</g>
<g>
</g>
<g>
</g>
<g>
</g>
<g>
</g>
<g>
</g>
<g>
</g>
<g>
</g>
<g>
</g>
</svg>
